<?xml version="1.0" encoding="UTF-8"?>
<svg id="Capa_2" data-name="Capa 2" xmlns="http://www.w3.org/2000/svg" viewBox="0 0 175.17 137.95">
  <defs>
    <style>
      .cls-1 {
        fill: #addbe3;
      }

      .cls-2 {
        fill: #f2f9fb;
      }

      .cls-3 {
        fill: #e1f1f5;
      }
    </style>
  </defs>
  <g id="Capa_1-2" data-name="Capa 1">
    <path class="cls-2" d="M56.26,13.45s24.43-3.95,25.17,17.52c0,12.21-7.4,15.91-13.57,16.04s-54.77.62-54.77.62C13.08,47.63-.24,45.74,0,30.4S16.9,14.32,23.2,13.82c0,0,.49-13.45,15.42-13.82,14.93-.37,17.64,13.45,17.64,13.45Z"/>
    <path class="cls-3" d="M128.76,40.46s45.04-7.28,46.41,32.3c0,22.52-13.65,29.35-25.02,29.57s-101,1.14-101,1.14c0,0-24.57-3.48-24.11-31.77s31.17-29.65,42.77-30.56c0,0,.91-24.8,28.44-25.48s32.53,24.8,32.53,24.8Z"/>
    <rect class="cls-1" x="42.41" y="76.95" width="80.85" height="60.99" rx="14.89" ry="14.89"/>
    <path class="cls-1" d="M81.43,30.11c-15.52,0-28.09,12.58-28.09,28.09v16.61h8.33v-16.61h.15c0-10.84,8.78-19.62,19.62-19.62s19.62,8.78,19.62,19.62v16.61h8.47v-16.61c0-15.52-12.58-28.09-28.09-28.09Z"/>
    <circle class="cls-2" cx="82.84" cy="107.45" r="16.67"/>
    <polygon class="cls-1" points="72.96 107.56 76.83 107.56 81.13 112 90.7 98.58 94.4 98.58 81.56 116.78 72.96 107.56"/>
  </g>
</svg>